<svg xmlns="http://www.w3.org/2000/svg" version="1.1" xmlns:xlink="http://www.w3.org/1999/xlink" xmlns:svgjs="http://svgjs.com/svgjs" width="1440" height="200" preserveAspectRatio="none" viewBox="0 0 1440 200"><g mask="url(&quot;#SvgjsMask1026&quot;)" fill="none"><path d="M 0,94 C 28.8,75.8 86.4,1.8 144,3 C 201.6,4.2 230.4,94.2 288,100 C 345.6,105.8 374.4,37.8 432,32 C 489.6,26.2 518.4,71.6 576,71 C 633.6,70.4 662.4,30 720,29 C 777.6,28 806.4,66.6 864,66 C 921.6,65.4 950.4,22.2 1008,26 C 1065.6,29.8 1094.4,81.6 1152,85 C 1209.6,88.4 1238.4,45.2 1296,43 C 1353.6,40.8 1411.2,67.8 1440,74L1440 200L0 200z" fill="rgba(93, 232, 215, 0.77)"></path><path d="M 0,104 C 72,118.6 216,173.6 360,177 C 504,180.4 576,126 720,121 C 864,116 936,156 1080,152 C 1224,148 1368,111.2 1440,101L1440 200L0 200z" fill="rgba(149, 195, 228, 0.54)"></path></g><defs><mask id="SvgjsMask1026"><rect width="1440" height="200" fill="#ffffff"></rect></mask></defs></svg>